<?xml version="1.0" encoding="UTF-8" standalone="no"?>
<!-- Created with Inkscape (http://www.inkscape.org/) -->

<svg
   width="210mm"
   height="297mm"
   viewBox="0 0 210 297"
   version="1.1"
   id="svg5"
   inkscape:version="1.1.1 (3bf5ae0d25, 2021-09-20)"
   sodipodi:docname="icon2.svg"
   xmlns:inkscape="http://www.inkscape.org/namespaces/inkscape"
   xmlns:sodipodi="http://sodipodi.sourceforge.net/DTD/sodipodi-0.dtd"
   xmlns="http://www.w3.org/2000/svg"
   xmlns:svg="http://www.w3.org/2000/svg">
  <sodipodi:namedview
     id="namedview7"
     pagecolor="#ffffff"
     bordercolor="#666666"
     borderopacity="1.0"
     inkscape:pageshadow="2"
     inkscape:pageopacity="0.0"
     inkscape:pagecheckerboard="0"
     inkscape:document-units="mm"
     showgrid="false"
     showborder="true"
     inkscape:zoom="0.3884119"
     inkscape:cx="943.58593"
     inkscape:cy="773.66322"
     inkscape:window-width="1920"
     inkscape:window-height="1057"
     inkscape:window-x="-8"
     inkscape:window-y="-8"
     inkscape:window-maximized="1"
     inkscape:current-layer="layer4" />
  <defs
     id="defs2" />
  <g
     inkscape:label="main_gear"
     inkscape:groupmode="layer"
     id="layer1"
     style="display:inline" />
  <g
     inkscape:groupmode="layer"
     id="layer2"
     inkscape:label="gear_2"
     style="display:inline" />
  <g
     inkscape:groupmode="layer"
     id="layer3"
     inkscape:label="paper"
     style="display:inline" />
  <g
     inkscape:groupmode="layer"
     id="layer4"
     inkscape:label="uml">
    <path
       id="path607"
       style="display:inline;fill:#030303;stroke-width:0.264583"
       inkscape:transform-center-x="-0.2925754"
       inkscape:transform-center-y="-2.6088481"
       d="m 106.32716,160.51249 v -2.19404 l 1.71685,-1.63493 1.71686,-1.63492 3.64096,-0.0736 3.64095,-0.0736 0.0702,-7.60677 0.0702,-7.60678 h -2.78218 -2.78219 v -1.05833 -1.05833 h -2.64583 -2.64583 v -2.38125 -2.38125 h 2.64583 2.64583 v -3.175 -3.175 h -2.64583 -2.64583 v -1.5875 -1.5875 h -1.05834 -1.05833 v 1.5875 1.5875 h -2.64583 -2.64584 v 3.175 3.175 h 2.64584 2.64583 v 2.38125 2.38125 h -2.64583 -2.64584 v 3.175 3.175 h 2.64584 2.64583 v 2.83874 2.83875 l -2.17697,2.18833 -2.17697,2.18834 2.17697,2.18834 2.17697,2.18834 v 2.0009 c 0,1.10049 0.0794,2.08027 0.17639,2.17728 0.097,0.097 0.57326,0.17639 1.05833,0.17639 h 0.88195 z m 1.74617,-9.29925 -1.74617,-1.70373 v -2.79419 -2.79419 h 2.64583 2.64583 v -1.05834 -1.05833 h 1.71979 1.7198 v 5.55625 5.55625 h -2.61945 -2.61945 z m -19.2799,23.56917 v -1.05833 h 16.53645 16.53646 v 1.05833 1.05834 H 105.32988 88.79343 Z m 0,-4.23333 v -1.05833 h 16.53645 16.53646 v 1.05833 1.05833 H 105.32988 88.79343 Z m 0.24084,-22.75217 v -19.31659 h 3.58502 c 4.02083,0 4.81124,-0.23165 5.6861,-1.66649 0.44598,-0.73143 0.51661,-1.34362 0.51747,-4.48507 l 9.9e-4,-3.63802 h 11.64306 11.64306 l -0.0675,24.14323 -0.0675,24.14323 -16.47031,0.0681 -16.47031,0.0682 z m 0,-21.37052 c 0,-0.25922 7.48293,-7.73564 7.74238,-7.73564 0.10732,0 0.19513,1.58889 0.19513,3.53087 0,4.58937 0.18464,4.40663 -4.45261,4.40663 -1.91669,0 -3.4849,-0.0908 -3.4849,-0.20186 z m -0.52788,-4.69157 -0.62013,-0.66009 2.75628,-2.58106 c 1.51596,-1.41957 3.36456,-3.14775 4.10801,-3.84038 l 1.35174,-1.25934 12.804,0.0687 12.80402,0.0687 0.0829,0.8599 0.0829,0.8599 H 109.57652 97.27694 l -0.87577,0.7276 c -0.48168,0.40018 -2.24699,2.00687 -3.92291,3.57042 -1.67592,1.56356 -3.11567,2.84348 -3.19945,2.84428 -0.0838,7.9e-4 -0.43137,-0.2956 -0.77244,-0.65865 z m 0.0287,-6.05482 -0.59139,-0.62951 3.37804,-3.07466 3.37804,-3.07466 h 13.57139 13.57139 v 0.92604 0.92604 H 108.73952 95.6365 l -3.01201,2.77812 c -1.6566,1.52797 -3.12136,2.77813 -3.25501,2.77813 -0.13365,0 -0.50913,-0.28328 -0.83439,-0.6295 z m 18.87291,73.08044 c 0.1523,-1.27281 0.39043,-2.42292 0.52917,-2.55579 0.13873,-0.13288 1.26902,-0.32388 2.51175,-0.42444 l 2.2595,-0.18285 0.87188,2.29529 c 0.52349,1.37815 0.99502,2.24896 1.18008,2.17934 0.16951,-0.0638 1.24527,-0.33589 2.39058,-0.60471 l 2.08237,-0.48878 -0.18239,-2.2478 c -0.10031,-1.23629 -0.20394,-2.36235 -0.23029,-2.50234 -0.0461,-0.24522 3.59049,-1.96036 4.23758,-1.99856 0.17419,-0.0103 0.93946,0.87322 1.70058,1.96335 l 1.38386,1.98203 2.00358,-1.07621 c 1.10197,-0.59191 2.09382,-1.1633 2.2041,-1.26974 0.11028,-0.10644 -0.20167,-1.21797 -0.69322,-2.47006 l -0.89373,-2.27653 1.71444,-1.23334 c 0.94295,-0.67834 1.88094,-1.29723 2.08444,-1.37532 0.21054,-0.0808 1.12483,0.50238 2.12143,1.35315 0.96328,0.82232 1.84024,1.46051 1.94879,1.4182 0.10855,-0.0423 0.9491,-0.77592 1.86788,-1.63023 1.89337,-1.76053 1.9037,-1.394 -0.11977,-4.25035 l -1.02964,-1.45345 1.51882,-1.87982 c 0.83536,-1.03391 1.65589,-1.82316 1.8234,-1.7539 0.16751,0.0693 1.20432,0.54026 2.30402,1.04666 l 1.99947,0.92072 1.24168,-1.96667 c 0.68293,-1.08166 1.24169,-2.06681 1.24169,-2.18921 0,-0.1224 -0.82954,-0.89277 -1.84341,-1.71194 l -1.8434,-1.4894 0.93175,-2.04613 c 0.51246,-1.12537 1.02331,-2.13821 1.13522,-2.25076 0.11191,-0.11255 1.06571,-0.0233 2.11957,0.19844 2.94058,0.61857 2.79444,0.68929 3.57476,-1.72994 0.37841,-1.17315 0.68801,-2.22088 0.68801,-2.32827 0,-0.1074 -0.9525,-0.65967 -2.11667,-1.22727 -2.31131,-1.12689 -2.26684,-1.0432 -1.83733,-3.45713 0.45748,-2.57121 0.40269,-2.49599 1.81823,-2.49599 0.69749,0 1.80384,-0.0734 2.45855,-0.16316 l 1.19039,-0.16316 0.156,-2.40793 c 0.0858,-1.32437 0.11965,-2.44429 0.0752,-2.48872 -0.0444,-0.0444 -1.16947,-0.2764 -2.50009,-0.51548 l -2.4193,-0.43471 -0.002,-1.08061 c -0.001,-0.59433 -0.0756,-1.69096 -0.16527,-2.43696 l -0.16297,-1.35635 2.21579,-0.72702 c 1.21869,-0.39987 2.30192,-0.80432 2.40718,-0.89879 0.10527,-0.0945 -0.002,-1.22321 -0.23764,-2.5083 l -0.42903,-2.33654 -2.51512,0.0938 -2.51513,0.0938 -0.59576,-1.76363 c -0.32767,-0.97 -0.67205,-2.00401 -0.7653,-2.2978 -0.14166,-0.44633 0.17737,-0.7567 1.9402,-1.8875 l 2.10973,-1.35334 -0.94949,-2.03741 c -0.52222,-1.12057 -1.02851,-2.12969 -1.12508,-2.24248 -0.0966,-0.11279 -1.21625,0.13411 -2.48817,0.54867 l -2.31259,0.75375 -1.12091,-1.7393 c -0.6165,-0.95661 -1.21853,-1.90026 -1.33785,-2.09699 -0.15063,-0.24837 0.32008,-0.89887 1.53988,-2.12809 l 1.75682,-1.77038 -1.60506,-1.90681 c -0.88271,-1.04875 -1.65503,-1.90681 -1.71621,-1.90681 -0.0612,0 -0.93945,0.53578 -1.95174,1.19062 -1.01228,0.65484 -2.00199,1.19063 -2.19934,1.19063 -0.19736,0 -1.06948,-0.71919 -1.93805,-1.59819 l -1.57921,-1.59818 1.05833,-1.997 c 0.58208,-1.09835 1.09352,-2.09208 1.13653,-2.20828 0.0862,-0.23283 -3.49293,-2.9171 -3.88954,-2.9171 -0.13617,0 -0.95952,0.78882 -1.82967,1.75293 l -1.58209,1.75294 -2.07699,-1.1335 c -1.14235,-0.62342 -2.12212,-1.16964 -2.17728,-1.21381 -0.0552,-0.0442 0.17892,-1.15049 0.52017,-2.458466 0.34125,-1.30799 0.56498,-2.42706 0.49716,-2.48682 -0.33009,-0.29094 -4.37612,-1.70694 -4.55733,-1.59495 -0.11441,0.0707 -0.55291,0.80449 -0.97444,1.63064 -1.38924,2.72267 -1.17864,2.61736 -3.81667,1.90843 l -2.28423,-0.61385 v -2.4465 -2.44649 l -0.85989,-0.1511 c -0.47295,-0.0831 -1.59649,-0.22995 -2.49677,-0.32631 l -1.63687,-0.1752 -0.40097,1.42134 c -0.22054,0.78174 -0.50355,1.83806 -0.62891,2.34738 l -0.22793,0.92604 h -2.47991 -2.4799 l -0.23358,-0.92604 c -0.12847,-0.50932 -0.41603,-1.56369 -0.63903,-2.34304 l -0.40545,-1.41701 -1.75904,0.17137 c -0.96747,0.0943 -2.08646,0.23535 -2.48664,0.31355 l -0.72761,0.14218 v 2.45491 2.45492 l -2.28421,0.61385 c -2.63804,0.70893 -2.42744,0.81424 -3.81667,-1.90843 -0.42154,-0.82615 -0.87334,-1.56815 -1.004,-1.64891 -0.1946,-0.12027 -4.10512,1.28085 -4.52778,1.62228 -0.0678,0.0548 0.15591,1.16977 0.49716,2.47776 0.34126,1.307976 0.57533,2.414286 0.52017,2.458466 -0.0551,0.0442 -1.02842,0.5868 -2.16281,1.20583 l -2.06253,1.12551 -1.59893,-1.74495 c -0.87942,-0.95973 -1.70927,-1.74495 -1.84413,-1.74495 -0.39497,0 -3.97302,2.68512 -3.88717,2.9171 0.043,0.1162 0.55445,1.10993 1.13654,2.20828 l 1.05833,1.997 -1.57922,1.59818 c -0.86857,0.879 -1.74069,1.59819 -1.93804,1.59819 -0.19736,0 -1.18706,-0.53579 -2.19935,-1.19063 -1.01229,-0.65484 -1.89057,-1.19062 -1.95174,-1.19062 -0.0612,0 -0.8335,0.85806 -1.71628,1.90681 l -1.60507,1.90681 1.75682,1.77038 c 1.21981,1.22922 1.69051,1.87972 1.53988,2.12809 -0.11932,0.19673 -0.72135,1.14038 -1.33785,2.09699 l -1.12091,1.7393 -2.31258,-0.75375 c -1.27193,-0.41456 -2.39779,-0.66146 -2.50191,-0.54867 -0.10411,0.11279 -0.60901,1.1228 -1.12198,2.24446 l -0.93269,2.03939 2.10665,1.35136 c 1.7601,1.12905 2.07876,1.43923 1.93711,1.88552 -0.0932,0.29379 -0.43763,1.3278 -0.7653,2.2978 l -0.59576,1.76363 -2.51513,-0.0938 -2.51513,-0.0938 -0.42903,2.33654 c -0.23597,1.28509 -0.34291,2.41383 -0.23764,2.5083 0.10526,0.0945 1.18849,0.49892 2.40718,0.89879 l 2.21579,0.72702 -0.16297,1.35635 c -0.0896,0.746 -0.16401,1.84263 -0.16527,2.43696 l -0.002,1.08061 -2.41931,0.43471 c -1.33062,0.23908 -2.45566,0.47105 -2.50009,0.51548 -0.0444,0.0444 -0.0106,1.16435 0.0752,2.48872 l 0.156,2.40793 1.19039,0.16316 c 0.65472,0.0897 1.76106,0.16316 2.45855,0.16316 1.41555,0 1.36075,-0.0752 1.81824,2.49599 0.42951,2.41393 0.47399,2.33024 -1.83734,3.45713 -1.16416,0.5676 -2.11666,1.11987 -2.11666,1.22727 0,0.10739 0.3096,1.15512 0.688,2.32827 0.78032,2.41923 0.63418,2.34851 3.57477,1.72994 1.05386,-0.22169 2.00767,-0.31099 2.11957,-0.19844 0.11191,0.11255 0.61999,1.11932 1.12906,2.23726 l 0.9256,2.03264 -1.83724,1.50311 c -1.01041,0.82671 -1.83717,1.60316 -1.83717,1.72544 0,0.12228 0.55876,1.10733 1.24168,2.18899 l 1.24168,1.96667 1.99947,-0.92072 c 1.0997,-0.5064 2.13008,-0.97492 2.28972,-1.04117 0.15964,-0.0662 0.98023,0.72292 1.82354,1.75369 l 1.53327,1.87412 -1.02978,1.45366 c -2.02364,2.8566 -2.0133,2.49002 -0.11991,4.25056 0.91878,0.85431 1.75932,1.58791 1.86787,1.63023 0.10856,0.0423 0.98551,-0.59588 1.9488,-1.4182 0.9966,-0.85077 1.91088,-1.43394 2.12142,-1.35315 0.2035,0.0781 1.1415,0.69698 2.08444,1.37532 l 1.71444,1.23334 -0.89373,2.27653 c -0.49155,1.25209 -0.8035,2.36362 -0.69321,2.47006 0.11028,0.10644 1.10212,0.67783 2.20409,1.26974 l 2.00358,1.07621 1.38386,-1.98203 c 0.76113,-1.09013 1.4761,-1.98205 1.58883,-1.98205 0.22429,0 3.35124,1.24411 4.01904,1.59903 0.36594,0.1945 0.37936,0.51021 0.11237,2.64426 -0.21536,1.72133 -0.22077,2.45091 -0.0187,2.51841 0.15648,0.0523 1.05841,0.28494 2.0043,0.51706 0.94588,0.23212 1.91939,0.48054 2.16333,0.55204 0.35063,0.10277 0.62556,-0.34915 1.31237,-2.15727 l 0.86883,-2.28727 2.2595,0.17936 c 1.48935,0.11822 2.36193,0.31082 2.56001,0.56507 0.16528,0.21214 0.38592,1.30429 0.49031,2.42699 0.10439,1.12271 0.24676,2.13492 0.31638,2.24936 0.0696,0.11445 1.21819,0.17398 2.55239,0.1323 l 2.42582,-0.0758 z M 84.33802,215.2001 c -3.39451,-0.92015 -6.2426,-1.74376 -6.32909,-1.83026 -0.0865,-0.0865 -0.13275,-3.46073 -0.1028,-7.49831 l 0.0545,-7.34105 -5.26278,-2.98725 -5.26277,-2.98725 -6.17208,3.71485 c -3.39465,2.04317 -6.30034,3.71485 -6.45711,3.71485 -0.36856,0 -9.40748,-9.04429 -9.40748,-9.41307 0,-0.15369 1.67168,-3.05687 3.71485,-6.45151 l 3.71485,-6.17208 -2.98725,-5.26277 -2.98724,-5.26277 -7.34106,0.0545 c -4.03758,0.03 -7.4113,-0.0158 -7.49715,-0.10164 -0.25753,-0.25754 -3.5399,-12.73299 -3.38966,-12.88324 0.0764,-0.0763 2.9587,-1.7105 6.40522,-3.63144 l 6.2664,-3.49261 v -6.12083 -6.12082 l -6.2664,-3.49261 c -3.44652,-1.92094 -6.32886,-3.55509 -6.40522,-3.63145 -0.14761,-0.14761 3.12979,-12.62336 3.3826,-12.87617 0.082,-0.082 3.45569,-0.12873 7.49716,-0.1039 l 7.34811,0.0452 2.98272,-5.25262 2.98273,-5.25262 -3.71033,-6.176586 c -2.04068,-3.39713 -3.70937,-6.3051 -3.7082,-6.46217 10e-4,-0.15706 2.08247,-2.35955 4.62511,-4.89442 4.2334,-4.22047 4.67358,-4.58572 5.22339,-4.3342 0.33023,0.15107 3.21184,1.84024 6.40359,3.75372 l 5.80317,3.47905 5.25241,-2.98132 5.25242,-2.98132 -0.0547,-7.37235 c -0.0456,-6.142563 0.008,-7.406113 0.3215,-7.574783 0.20693,-0.11134 1.86452,-0.58465 3.68353,-1.05179 1.81901,-0.46714 4.5477,-1.19573 6.06376,-1.61909 1.51606,-0.42336 2.82368,-0.70253 2.90583,-0.62039 0.0822,0.0821 1.72103,2.96924 3.64197,6.415761 l 3.4926,6.266392 h 6.12083 6.12083 l 3.49261,-6.266392 c 1.92094,-3.446521 3.55983,-6.333611 3.64198,-6.415761 0.0821,-0.0821 1.38977,0.19703 2.90582,0.62039 1.51606,0.42336 4.24475,1.15195 6.06376,1.61909 1.81901,0.46714 3.4734,0.93865 3.67641,1.0478 0.3039,0.16339 0.3611,1.50171 0.32376,7.574793 l -0.0454,7.37633 5.26513,2.98989 5.26513,2.98989 6.15848,-3.71749 c 3.38717,-2.04463 6.28472,-3.7175 6.43902,-3.7175 0.36895,0 9.42657,9.04324 9.42847,9.41351 7.9e-4,0.15695 -1.6694,3.06281 -3.71156,6.45744 l -3.71303,6.172076 2.98542,5.25733 2.98543,5.25734 7.37633,-0.0454 c 6.07308,-0.0373 7.4114,0.0199 7.57479,0.32376 0.10915,0.20301 0.58066,1.85739 1.0478,3.67641 0.46714,1.81901 1.19573,4.5477 1.61909,6.06376 0.42336,1.51605 0.70254,2.82368 0.62039,2.90582 -0.0822,0.0822 -2.96924,1.72104 -6.41576,3.64198 l -6.26639,3.49261 v 6.12082 6.12083 l 6.26639,3.49261 c 3.44652,1.92094 6.33361,3.55983 6.41576,3.64198 0.0821,0.0821 -0.19703,1.38977 -0.62039,2.90582 -0.42336,1.51606 -1.15195,4.24475 -1.61909,6.06376 -0.46714,1.81901 -0.94045,3.4766 -1.05179,3.68353 -0.16867,0.31348 -1.43222,0.36711 -7.57478,0.3215 l -7.37235,-0.0547 -2.98273,5.25487 -2.98273,5.25488 3.71033,6.17659 c 2.04069,3.39713 3.70938,6.3051 3.70821,6.46217 -0.003,0.36367 -9.06642,9.41369 -9.42793,9.41369 -0.14829,0 -3.04667,-1.66577 -6.44085,-3.70171 l -6.17124,-3.70171 -1.75646,0.98974 c -0.96605,0.54435 -3.33284,1.88269 -5.25952,2.9741 l -3.50307,1.98438 0.0469,7.34811 c 0.0258,4.04146 -0.0202,7.41518 -0.10215,7.49715 -0.25281,0.25281 -12.72856,3.53022 -12.87618,3.3826 -0.0763,-0.0763 -1.7105,-2.9587 -3.63144,-6.40522 l -3.49261,-6.2664 h -6.12083 -6.12083 l -3.53578,6.34388 c -1.94469,3.48913 -3.63336,6.36607 -3.75261,6.39319 -0.11925,0.0271 -2.99413,-0.70354 -6.38863,-1.62369 z" />
  </g>
</svg>
